<svg xmlns="http://www.w3.org/2000/svg" viewBox="0 0 64 64">
  <defs>
    <linearGradient id="bg" x1="0" y1="0" x2="1" y2="1">
      <stop offset="0" stop-color="#141a30"/>
      <stop offset="1" stop-color="#0a0d18"/>
    </linearGradient>
    <linearGradient id="blue" x1="0" y1="0" x2="1" y2="1">
      <stop offset="0" stop-color="#3d93ff"/>
      <stop offset="0.5" stop-color="#065cc2"/>
      <stop offset="1" stop-color="#054a9e"/>
    </linearGradient>
    <linearGradient id="shine" x1="0" y1="0" x2="0" y2="1">
      <stop offset="0" stop-color="#ffffff" stop-opacity="0.30"/>
      <stop offset="1" stop-color="#ffffff" stop-opacity="0"/>
    </linearGradient>
    <clipPath id="clip">
      <rect x="2" y="2" width="60" height="60" rx="15"/>
    </clipPath>
  </defs>

  <rect x="2" y="2" width="60" height="60" rx="15" fill="url(#bg)"/>
  <rect x="3.5" y="3.5" width="57" height="57" rx="13.5" fill="none" stroke="#065cc2" stroke-opacity="0.6" stroke-width="3"/>

  <path
    d="M16 14 H33 C44 14 51 21.2 51 32 C51 42.8 44 50 33 50 H16 Z
       M26 23 V41 H33 C39 41 43 37 43 32 C43 27 39 23 33 23 Z"
    fill="url(#blue)"
    fill-rule="evenodd"
  />

  <g clip-path="url(#clip)">
    <rect x="2" y="2" width="60" height="34" rx="15" fill="url(#shine)"/>
  </g>
</svg>
